<svg id="Layer_1" data-name="Layer 1" xmlns="http://www.w3.org/2000/svg" xmlns:xlink="http://www.w3.org/1999/xlink" viewBox="0 0 90.35 91.93"><defs><style>.cls-1{fill:url(#linear-gradient);}.cls-2{fill:url(#linear-gradient-2);}</style><linearGradient id="linear-gradient" x1="952.9" y1="923.73" x2="984.5" y2="978.46" gradientUnits="userSpaceOnUse"><stop offset="0.36" stop-color="#4169e1"/><stop offset="1" stop-color="#f04848"/></linearGradient><linearGradient id="linear-gradient-2" x1="946.33" y1="912.55" x2="990.89" y2="989.74" xlink:href="#linear-gradient"/></defs><path class="cls-1" d="M923.53,959.59v-17a3.29,3.29,0,0,1,3.29-3.29h52.45c8.71,0,22.15,0,31.31,0a3.29,3.29,0,0,1,3.3,3.29v17a3.3,3.3,0,0,1-3.3,3.3H926.82A3.29,3.29,0,0,1,923.53,959.59Z" transform="translate(-923.53 -905.02)"/><path class="cls-2" d="M959.89,997a3.29,3.29,0,0,1-3.3-3.29V908.53a3.3,3.3,0,0,1,3.3-3.3c22.25,1.29,21.3-6.53,20.93,18.13v70.3a3.29,3.29,0,0,1-3.3,3.29Z" transform="translate(-923.53 -905.02)"/></svg>