<svg id="Layer_1" data-name="Layer 1" xmlns="http://www.w3.org/2000/svg" xmlns:xlink="http://www.w3.org/1999/xlink" viewBox="0 0 619.24 210.26"><defs><style>.cls-1{fill:url(#linear-gradient);}</style><linearGradient id="linear-gradient" x1="260.67" y1="812.56" x2="879.9" y2="812.56" gradientUnits="userSpaceOnUse"><stop offset="0" stop-color="#4169e1"/><stop offset="1" stop-color="#f04848"/></linearGradient></defs><path id="gradient" class="cls-1" d="M353,884.17C277.29,886.66,240.7,813.45,271.7,750c24.77-48.94,92.95-51.12,138-29.44l-3,36.43c-31.9-20-85.52-27.21-101.1,15.34-7.08,19.7-5,47.33,9.37,63.78,22.58,25.15,65.26,18.71,92.68,4.12q2.43,17.09,4.87,34.18C395.4,882.41,372.5,883.79,353,884.17Zm24.87-23.94V792.64l29.64-4.27,1.89,24.45h3c7.91-19,27-28,45.51-21.26l-3.11,34.64c-41.05-5.58-42.31,13.59-42.21,48.2C403.41,876.09,382.27,866.84,377.84,860.23ZM514.4,884.35c-39.43,2.21-59.28-40.4-43-72.55,16.09-33.35,76.63-30.87,87.76,5.65C570.41,849.12,550.93,886.23,514.4,884.35Zm-.09-22.22c27,0,27.15-52-.09-51.37C486.3,810.18,486.86,862.26,514.31,862.13Zm91.35,22.22c-25.06.77-29.11-21.85-27.69-42.81V791l27.23-.82v38.71c.31,6.76-1.26,22.07,2.64,27.1,7.44,9.35,22.45,1.27,27.15-7.79V791h27.23v90.9H639.36l-1.18-14.48h-2.37C629.07,877.22,618.29,884.63,605.66,884.35Zm77.87,33.34V791l24.14-1.36.82,12.47h2.18c9-15.44,33.28-17.55,46.46-7.28,12.26,9.5,16.5,25.51,16.57,41.53-.06,15.37-4.31,31.58-16,41.26-12.42,10.58-35.66,8.72-45.26-5.56h-1.64v44.82Zm43.36-56.47c18.17.11,22-23.41,16.85-36.94-4.26-14.58-24.77-16.37-33-4.23v31C713.94,857.22,719.7,861.36,726.89,861.22Zm62.66-26.16v-17a3.3,3.3,0,0,1,3.3-3.3h52.44c8.72,0,22.16,0,31.32,0a3.29,3.29,0,0,1,3.29,3.3v17a3.29,3.29,0,0,1-3.29,3.29H792.85A3.29,3.29,0,0,1,789.55,835.06Zm36.36,37.36a3.3,3.3,0,0,1-3.3-3.3V784a3.3,3.3,0,0,1,3.3-3.3c22.25,1.28,21.31-6.54,20.93,18.12v70.3a3.3,3.3,0,0,1-3.3,3.3Z" transform="translate(-260.67 -707.43)"/></svg>